
<svg xmlns="http://www.w3.org/2000/svg" style="background: transparent; background-color: transparent; color-scheme: light dark;" xmlns:xlink="http://www.w3.org/1999/xlink" version="1.1" width="910px" height="776px" viewBox="-40 0 950 776" overflow="visible"><defs/><g><g data-cell-id="0"><g data-cell-id="1"><g data-cell-id="faY2uotTJuN1MyePk5ec-6"><g transform="translate(0.5,0.5)"><rect x="-0.5" y="582" width="870" height="180" fill="none" stroke="none" pointer-events="all"/></g><g><g><path d="M 104.3 714.6 L 104.3 735.1 L 36.3 735.1 L 36.3 612.9 L 61.1 612.9 L 61.1 714.6 L 104.3 714.6 Z M 158.4 612.9 L 158.4 735.1 L 133.7 735.1 L 133.7 612.9 L 158.4 612.9 Z M 278.7 612.9 L 278.7 735.1 L 254.0 735.1 L 217.9 654.9 L 217.9 735.1 L 193.1 735.1 L 193.1 612.9 L 217.9 612.9 L 254.0 693.1 L 254.0 612.9 L 278.7 612.9 Z M 369.3 735.1 L 347.0 687.9 L 337.2 700.0 L 337.2 735.1 L 312.4 735.1 L 312.4 612.9 L 337.2 612.9 L 337.2 666.0 L 345.0 652.9 L 367.8 612.9 L 397.9 612.9 L 362.9 666.6 L 398.5 735.1 L 369.3 735.1 Z M 413.6 735.1 L 451.8 612.9 L 474.4 612.9 L 512.9 735.1 L 486.6 735.1 L 480.1 710.1 L 446.4 710.1 L 439.8 735.1 L 413.6 735.1 Z M 451.8 689.5 L 474.7 689.5 L 463.2 645.9 L 451.8 689.5 Z M 593.9 735.1 L 575.5 690.5 L 563.3 690.5 L 563.3 735.1 L 538.5 735.1 L 538.5 612.9 L 577.9 612.9 Q 596.2 612.9 606.4 622.3 Q 616.7 631.8 616.7 649.8 Q 616.7 663.1 612.0 671.2 Q 607.3 679.4 598.9 683.8 L 620.4 734.0 L 620.4 735.1 L 593.9 735.1 Z M 563.3 633.4 L 563.3 669.9 L 577.2 669.9 Q 584.6 669.9 588.3 665.0 Q 592.0 660.1 592.0 651.8 Q 592.0 633.8 578.4 633.4 L 563.3 633.4 Z M 647.6 735.1 L 647.6 612.9 L 717.7 612.9 L 717.7 633.4 L 672.4 633.4 L 672.4 662.3 L 710.8 662.3 L 710.8 682.2 L 672.4 682.2 L 672.4 714.6 L 717.8 714.6 L 717.8 735.1 L 647.6 735.1 Z M 831.6 612.9 L 831.6 735.1 L 806.9 735.1 L 770.8 654.9 L 770.8 735.1 L 746.0 735.1 L 746.0 612.9 L 770.8 612.9 L 806.9 693.1 L 806.9 612.9 L 831.6 612.9 Z" fill="#000000" style="fill: light-dark(rgb(0, 0, 0), rgb(255, 255, 255));" pointer-events="all"/></g></g></g><g data-cell-id="faY2uotTJuN1MyePk5ec-16"><g transform="translate(0.5,0.5)"/><g data-cell-id="faY2uotTJuN1MyePk5ec-1"><g transform="translate(0.5,0.5)"><ellipse cx="282" cy="47" rx="35" ry="35" fill="#ffffff" stroke="#000000" stroke-width="24" pointer-events="all" style="fill: light-dark(rgb(255, 255, 255), transparent); stroke: light-dark(rgb(0, 0, 0), rgb(255, 255, 255));"/></g></g><g data-cell-id="faY2uotTJuN1MyePk5ec-3"><g><path d="M 282 431 L 281.5 81" fill="none" stroke="#ffffff" stroke-width="32" stroke-miterlimit="10" pointer-events="stroke" style="stroke: rgb(255, 255, 255);"/></g></g><g data-cell-id="faY2uotTJuN1MyePk5ec-8"><g transform="translate(0.5,0.5)"><ellipse cx="282" cy="471" rx="35" ry="35" fill="#ffffff" stroke="#000000" stroke-width="24" pointer-events="all" style="fill: light-dark(rgb(255, 255, 255), transparent); stroke: light-dark(rgb(0, 0, 0), rgb(255, 255, 255));"/></g></g><g data-cell-id="faY2uotTJuN1MyePk5ec-9"><g><path d="M 547 471 L 322 470.5" fill="none" stroke="#ffffff" stroke-width="32" stroke-miterlimit="10" pointer-events="stroke" style="stroke: rgb(255, 255, 255);"/></g></g><g data-cell-id="faY2uotTJuN1MyePk5ec-10"><g transform="translate(0.5,0.5)"><ellipse cx="587" cy="471" rx="35" ry="35" fill="#ffffff" stroke="#000000" stroke-width="24" pointer-events="all" style="fill: light-dark(rgb(255, 255, 255), transparent); stroke: light-dark(rgb(0, 0, 0), rgb(255, 255, 255));"/></g></g></g></g></g></g></svg>